<?xml version="1.0" encoding="UTF-8"?>
<svg width="256px" height="256px" viewBox="0 0 256 256" version="1.1" xmlns="http://www.w3.org/2000/svg" xmlns:xlink="http://www.w3.org/1999/xlink">
    <!-- Generator: Sketch 59.1 (86144) - https://sketch.com -->
    <title>logo2</title>
    <desc>Created with Sketch.</desc>
    <g id="Page-1" stroke="none" stroke-width="1" fill="none" fill-rule="evenodd">
        <g id="logo2">
            <rect id="Rectangle" fill="#1B2437" x="0" y="0" width="255.62" height="256"></rect>
            <path d="M132.45,137.85 C132.45,145.23 132.35,152.62 132.45,160 C132.53,164.05 131.13,166.52 126.93,167.51 C119.63,169.23 112.42,171.32 105.14,173.16 C100.42,174.36 98.14,172.91 97.66,168.25 C97.01,162.44 92.66,159.07 88.92,155.67 C79.76,147.41 72.97,137.48 70.49,125.67 C65.71,102.77 71.37,82.46 89.49,66.91 C118.11,42.4 162.17,51.09 179.24,84.32 C191.709069,108.013106 186.456877,137.151639 166.5,155 C160.97,159.94 156.5,165.31 156.43,173.38 C156.43,178.22 152.67,180.21 148.58,181.33 C137.35,184.42 126.08,187.4 114.82,190.42 C112.62,191.01 110.43,191.7 108.2,192.12 C105.06,192.72 101.94,192.43 101.07,188.76 C100.2,185.09 102.92,183.49 105.89,182.46 C107.66,181.85 109.5,181.46 111.31,180.95 C121.44,178.23 131.56,175.48 141.7,172.83 C144.31,172.15 145.98,170.83 146.58,168.12 C148.31,160.48 152.89,154.59 158.37,149.3 C166,141.89 172,133.53 174.6,123 C178.568295,106.91598 174.040011,89.9195098 162.595391,77.9418753 C151.150771,65.9642407 134.377887,60.6674752 118.13,63.9 C98.77,67.71 86.46,79.59 81,98.15 C75.92,115.24 80.22,130.63 91.74,144.03 C96.53,149.61 102.35,154.34 105.74,161.03 C106.47,162.46 107.57,162.23 108.82,161.88 C112.44,160.88 116.05,159.82 119.7,158.99 C121.94,158.48 122.6,157.39 122.58,155.09 C122.46,141.54 122.49,127.98 122.58,114.42 C122.58,109.57 126.29,107.42 130.36,109.62 C132.36,110.71 132.48,112.55 132.48,114.47 C132.453333,122.276667 132.443333,130.07 132.45,137.85 Z" id="Path" fill="#FEDA00" fill-rule="nonzero"></path>
            <path d="M114.91,209.21 C112.15,209.13 109.83,208.37 109.32,205.5 C108.75,202.26 110.88,200.4 113.6,199.59 C120.65,197.49 127.78,195.65 134.88,193.73 C138.24,192.82 141.62,191.99 144.98,191.09 C146.906478,190.46006 148.983522,190.46006 150.91,191.09 C153.91,192.22 154.69,194.97 152.78,197.55 C151.506422,199.093496 149.741239,200.152606 147.78,200.55 C137.46,203.35 127.126667,206.133333 116.78,208.9 C116.164459,209.045825 115.539669,209.1494 114.91,209.21 L114.91,209.21 Z" id="Path" fill="#FEDA00" fill-rule="nonzero"></path>
            <path d="M113.48,132.1 C113.48,135.45 113.56,138.81 113.48,142.16 C113.36,145.98 111.48,148.09 108.26,147.89 C104.79,147.66 103.4,145.51 103.4,142.23 C103.4,135.39 103.33,128.55 103.4,121.71 C103.4,118.03 105.57,115.64 108.61,115.93 C111.91,116.25 113.46,118.41 113.5,121.64 C113.51,125.13 113.48,128.62 113.48,132.1 Z" id="Path" fill="#FEDA00" fill-rule="nonzero"></path>
            <path d="M151.59,132 C151.59,135.47 151.59,139 151.59,142.42 C151.59,145.84 149.77,147.81 146.52,147.86 C143.27,147.91 141.63,145.74 141.59,142.67 C141.49,135.58 141.42,128.49 141.68,121.42 C141.77,118.94 143.16,116.42 145.95,116.13 C148.95,115.77 151.52,118.65 151.58,121.97 C151.64,125.29 151.59,128.67 151.59,132 Z" id="Path" fill="#FEDA00" fill-rule="nonzero"></path>
            <path d="M153.1,102.5 C153.115671,104.267279 152.403231,105.963094 151.130104,107.188928 C149.856978,108.414761 148.13542,109.062527 146.37,108.98 C142.847796,108.888551 140.031138,106.023253 140,102.5 C140,98.8880577 142.928058,95.96 146.54,95.96 C150.151942,95.96 153.08,98.8880577 153.08,102.5 L153.1,102.5 Z" id="Path" fill="#FFFFFF" fill-rule="nonzero"></path>
            <path d="M134,95.41 C133.966164,98.9665947 131.075987,101.833353 127.519235,101.838272 C123.962483,101.843154 121.064418,98.9843698 121.020782,95.4278818 C120.977146,91.8713938 123.804198,88.9423664 127.36,88.86 C129.124105,88.7962134 130.836431,89.4627587 132.093144,90.7024384 C133.349858,91.9421182 134.039708,93.645189 134,95.41 L134,95.41 Z" id="Path" fill="#FFFFFF" fill-rule="nonzero"></path>
            <path d="M114.86,102.48 C114.845881,104.297245 114.090879,106.03005 112.769573,107.27774 C111.448268,108.525431 109.675072,109.179966 107.86,109.09 C104.77,109.09 101.86,105.78 101.86,102.38 C101.887614,98.7901491 104.820149,95.9023858 108.41,95.93 C111.999851,95.9576142 114.887614,98.8901491 114.86,102.48 Z" id="Path" fill="#FFFFFF" fill-rule="nonzero"></path>
        </g>
    </g>
</svg>