<svg id="Layer_1" data-name="Layer 1" xmlns="http://www.w3.org/2000/svg" viewBox="0 0 256 256"><defs><style>.cls-1{fill:#32499e;}.cls-2{fill:#feda00;}.cls-3{fill:#fff;}</style></defs><rect class="cls-1" width="255.62" height="256"/><path class="cls-2" d="M132.45,137.85c0,7.38-.1,14.77,0,22.15.08,4.05-1.32,6.52-5.52,7.51-7.3,1.72-14.51,3.81-21.79,5.65-4.72,1.2-7-.25-7.48-4.91-.65-5.81-5-9.18-8.74-12.58-9.16-8.26-15.95-18.19-18.43-30-4.78-22.9.88-43.21,19-58.76,28.62-24.51,72.68-15.82,89.75,17.41A58.36,58.36,0,0,1,166.5,155c-5.53,4.94-10,10.31-10.07,18.38,0,4.84-3.76,6.83-7.85,7.95-11.23,3.09-22.5,6.07-33.76,9.09-2.2.59-4.39,1.28-6.62,1.7-3.14.6-6.26.31-7.13-3.36s1.85-5.27,4.82-6.3c1.77-.61,3.61-1,5.42-1.51,10.13-2.72,20.25-5.47,30.39-8.12,2.61-.68,4.28-2,4.88-4.71,1.73-7.64,6.31-13.53,11.79-18.82C166,141.89,172,133.53,174.6,123A48.43,48.43,0,0,0,118.13,63.9C98.77,67.71,86.46,79.59,81,98.15c-5.08,17.09-.78,32.48,10.74,45.88,4.79,5.58,10.61,10.31,14,17,.73,1.43,1.83,1.2,3.08.85,3.62-1,7.23-2.06,10.88-2.89,2.24-.51,2.9-1.6,2.88-3.9-.12-13.55-.09-27.11,0-40.67,0-4.85,3.71-7,7.78-4.8,2,1.09,2.12,2.93,2.12,4.85Q132.44,126.18,132.45,137.85Z"/><path class="cls-2" d="M114.91,209.21c-2.76-.08-5.08-.84-5.59-3.71-.57-3.24,1.56-5.1,4.28-5.91,7.05-2.1,14.18-3.94,21.28-5.86,3.36-.91,6.74-1.74,10.1-2.64a9.54,9.54,0,0,1,5.93,0c3,1.13,3.78,3.88,1.87,6.46a8.73,8.73,0,0,1-5,3q-15.48,4.2-31,8.35A13.88,13.88,0,0,1,114.91,209.21Z"/><path class="cls-2" d="M113.48,132.1c0,3.35.08,6.71,0,10.06-.12,3.82-2,5.93-5.22,5.73-3.47-.23-4.86-2.38-4.86-5.66,0-6.84-.07-13.68,0-20.52,0-3.68,2.17-6.07,5.21-5.78,3.3.32,4.85,2.48,4.89,5.71C113.51,125.13,113.48,128.62,113.48,132.1Z"/><path class="cls-2" d="M151.59,132c0,3.47,0,7,0,10.42s-1.82,5.39-5.07,5.44-4.89-2.12-4.93-5.19c-.1-7.09-.17-14.18.09-21.25.09-2.48,1.48-5,4.27-5.29,3-.36,5.57,2.52,5.63,5.84S151.59,128.67,151.59,132Z"/><path class="cls-3" d="M153.1,102.5a6.43,6.43,0,0,1-6.73,6.48A6.54,6.54,0,0,1,140,102.5a6.54,6.54,0,0,1,13.08,0Z"/><path class="cls-3" d="M134,95.41a6.49,6.49,0,1,1-6.64-6.55A6.41,6.41,0,0,1,134,95.41Z"/><path class="cls-3" d="M114.86,102.48a6.67,6.67,0,0,1-7,6.61c-3.09,0-6-3.31-6-6.71a6.5,6.5,0,0,1,13,.1Z"/></svg>